<svg width="121" height="21" viewBox="0 0 121 21" fill="none" xmlns="http://www.w3.org/2000/svg">
<mask id="mask0_526_13109" style="mask-type:luminance" maskUnits="userSpaceOnUse" x="0" y="0" width="121" height="21">
<path d="M121 0H0V20.3438H121V0Z" fill="white"/>
</mask>
<g mask="url(#mask0_526_13109)">
<path d="M33.7393 20.0914L41.8427 1.13721H45.9984L54.1278 20.0914H49.7124L43.0634 3.35756H44.7257L38.0507 20.0914H33.7393ZM37.791 16.0298L38.9079 12.6992H48.258L49.4008 16.0298H37.791Z" fill="black"/>
<path d="M55.7656 20.0914V0H59.8174V20.0914H55.7656Z" fill="black"/>
<path d="M94.3311 20.0987L102.435 1.14453H106.59L114.719 20.0987H110.304L103.655 3.36487H105.318L98.6424 20.0987H94.3311ZM98.3829 16.0371L99.4996 12.7066H108.85L109.993 16.0371H98.3829Z" fill="black"/>
<path d="M116.644 20.0987V1.14453H120.851V20.0987H116.644Z" fill="black"/>
<path d="M85.0795 6.33496C86.1124 6.33496 87.0324 6.55369 87.8395 6.99121C88.6621 7.4118 89.3077 8.06805 89.7762 8.95976C90.2439 9.83474 90.4778 10.962 90.4778 12.3417V20.1153H86.7011V12.9475C86.7011 11.8538 86.4672 11.0462 85.9995 10.5246C85.5472 10.003 84.9017 9.74221 84.0628 9.74221C83.4652 9.74221 82.9244 9.87681 82.4404 10.146C81.9727 10.3984 81.6016 10.7938 81.3271 11.3322C81.0689 11.8706 80.9398 12.5605 80.9398 13.4018V20.1153H77.1631V6.53689H80.7701V10.2975L80.0921 9.16169C80.5605 8.25311 81.2304 7.55486 82.1018 7.06688C82.9731 6.57895 83.9654 6.33496 85.0795 6.33496Z" fill="black"/>
<path d="M66.7425 20.3437C65.8131 20.3437 64.9566 20.1686 64.173 19.8185C63.4076 19.4508 62.7971 18.9606 62.3416 18.3479C61.9042 17.7351 61.6855 17.0611 61.6855 16.3259C61.6855 15.1353 62.1867 14.1725 63.1889 13.4372C64.1912 12.7019 65.5671 12.203 67.3164 11.9404L71.0613 11.4151V10.8637C71.0613 10.0934 70.8605 9.51568 70.4597 9.13053C70.0588 8.74538 69.4119 8.55277 68.5189 8.55277C67.918 8.55277 67.4258 8.66656 67.0431 8.89415C66.6787 9.10421 66.3871 9.31435 66.1684 9.52441C65.9498 9.752 65.6843 10.2159 65.6114 10.286H62.6149C62.6149 10.083 62.6019 9.98654 62.6149 9.67331C62.6331 9.23566 62.8518 8.77163 63.2709 8.21139C63.7083 7.65115 64.3734 7.16972 65.2664 6.76705C66.1593 6.36444 67.2527 6.16309 68.5467 6.16309C70.6969 6.16309 72.4984 6.627 73.482 7.55487C74.4662 8.48275 74.9583 9.6995 74.9583 11.2051V19.4508C74.9583 19.6259 74.9583 20.081 74.9583 20.081H71.1978C71.1978 20.081 71.1978 19.6259 71.1978 19.4508V18.4267C70.797 18.9869 70.2231 19.4508 69.4761 19.8185C68.7467 20.1686 67.8355 20.3437 66.7425 20.3437ZM67.6719 17.8489C68.6744 17.8489 69.4944 17.5338 70.1318 16.9035C70.7699 16.2734 71.0883 15.3542 71.0883 14.1462V13.5948L68.3554 14.0149C67.2983 14.1725 66.4964 14.4263 65.9498 14.7765C65.4213 15.1266 65.157 15.5555 65.157 16.0632C65.157 16.6235 65.403 17.0611 65.8951 17.3762C66.3871 17.6914 66.9793 17.8489 67.6719 17.8489Z" fill="black"/>
<path d="M19.197 0.000488281H10.703L0.00683594 20.0918H8.26491L19.197 0.000488281Z" fill="url(#paint0_linear_526_13109)"/>
<path d="M18.9352 20.0915L15.0028 12.916H3.81813L0 20.0915H18.9352Z" fill="url(#paint1_linear_526_13109)"/>
<path d="M8.26333 20.0915L12.1675 12.916H3.82399L0.00585938 20.0915H8.26333Z" fill="url(#paint2_linear_526_13109)"/>
<path d="M10.6855 0H19.1796L29.8758 20.0913H21.6177L10.6855 0Z" fill="url(#paint3_linear_526_13109)"/>
</g>
<defs>
<linearGradient id="paint0_linear_526_13109" x1="4.78637" y1="23.9629" x2="-3.2199" y2="4.11822" gradientUnits="userSpaceOnUse">
<stop stop-color="#2757FF"/>
<stop offset="1" stop-color="#115FC6"/>
</linearGradient>
<linearGradient id="paint1_linear_526_13109" x1="22.2072" y1="14.7921" x2="20.4028" y2="23.5583" gradientUnits="userSpaceOnUse">
<stop stop-color="#62BBFF"/>
<stop offset="1" stop-color="#009DFF"/>
</linearGradient>
<linearGradient id="paint2_linear_526_13109" x1="2.36208" y1="21.0598" x2="1.16176" y2="13.5536" gradientUnits="userSpaceOnUse">
<stop stop-color="#32BEFF"/>
<stop offset="1" stop-color="#5ECCFF"/>
</linearGradient>
<linearGradient id="paint3_linear_526_13109" x1="6.49851" y1="5.25313" x2="17.2757" y2="24.9381" gradientUnits="userSpaceOnUse">
<stop stop-color="#62BBFF"/>
<stop offset="1" stop-color="#009DFF"/>
</linearGradient>
</defs>
</svg>
